<svg id="yulansvg" xmlns="http://www.w3.org/2000/svg" data-v-056d9bd8="" version="1.0" width="155" height="55" viewBox="0 0 230.000000 85.000000" preserveAspectRatio="xMidYMid meet" color-interpolation-filters="sRGB" class="el-tooltip"><svg width="85" height="85" x="0" y="0"><svg data-name="?? 1" xmlns="http://www.w3.org/2000/svg" viewBox="0 0 482.65 621.83"><defs><radialGradient id="a282f91b9-5fa5-4988-8254-692ba4ee33a2" cx="103.19" cy="476.12" r="115.62" gradientUnits="userSpaceOnUse"><stop offset="0" stop-color="#02dcfb"></stop><stop offset=".84" stop-color="#02dcfb"></stop></radialGradient><radialGradient id="b3fb91ef8-d97e-41b3-a130-697d64a0e111" cx="241.77" cy="389.7" r="116.09" gradientUnits="userSpaceOnUse"><stop offset="0" stop-color="#02dcfb"></stop><stop offset=".84" stop-color="#02dcfb"></stop></radialGradient><radialGradient id="c582a97d9-0267-4688-9a12-779fc9a927e8" cx="73.12" cy="120.08" r="502.3" gradientTransform="matrix(1.04 0 0 1 -4.94 0)" gradientUnits="userSpaceOnUse"><stop offset="0" stop-color="#02dcfb"></stop><stop offset=".84" stop-color="#02dcfb"></stop></radialGradient><radialGradient id="da3712d54-a231-414b-a30b-9e6d4a954c1b" cx="291.66" cy="313.33" r="221.31" gradientTransform="matrix(1.04 0 0 1 -4.94 0)" gradientUnits="userSpaceOnUse"><stop offset=".27" stop-color="#02dcfb"></stop><stop offset="1" stop-color="#02dcfb"></stop></radialGradient><radialGradient id="e04039f2b-db75-4208-b876-45ee965365cc" cx="311.24" cy="354.91" r="312.95" gradientTransform="matrix(1.04 0 0 1 -4.94 0)" gradientUnits="userSpaceOnUse"><stop offset="0" stop-color="#02dcfb"></stop><stop offset=".84" stop-color="#02dcfb"></stop></radialGradient><radialGradient id="f793e52f1-294c-4e41-9257-c1d077972cb8" cx="301.3" cy="221.97" r="90.59" gradientTransform="matrix(1.2 0 0 1.2 -71 -15.86)" gradientUnits="userSpaceOnUse"><stop offset="0" stop-color="#3e3a39"></stop><stop offset="1" stop-color="#231815"></stop></radialGradient><radialGradient id="g37e9371e-eb2e-44cb-8d5d-51b0a3d9f187" cx="316.53" cy="220.77" r="131.94" gradientTransform="matrix(1.2 0 0 1.2 -71 -15.86)" gradientUnits="userSpaceOnUse"><stop offset="0" stop-color="#242424"></stop><stop offset="1"></stop></radialGradient><radialGradient id="hfb11ed6e-e8b0-4b72-9501-5da3485d669e" cx="-234.07" cy="-159.68" r="124.95" gradientTransform="rotate(-42.3 250.68 -719.751)" gradientUnits="userSpaceOnUse"><stop offset="0" stop-color="#02dcfb"></stop><stop offset=".84" stop-color="#02dcfb"></stop></radialGradient><radialGradient id="i1c7c6dff-6dbf-4726-867a-d2052618b2d7" cx="845.3" cy="-150.08" r="148.05" gradientTransform="rotate(39.68 329.206 -733.285)" gradientUnits="userSpaceOnUse"><stop offset="0" stop-color="#02dcfb"></stop><stop offset=".84" stop-color="#02dcfb"></stop></radialGradient></defs><path d="M178.14 602.45a15.1 15.1 0 0 1-8.4-10.56c-3.72-27.7-3-65.17 38.24-117.48l-14.66-6.3c-27.86 31.44-48.34 85.94-40.15 140-.45-.9-6.55-11.34-6.55-11.34-27.52 5.11-45.44 12.53-33.74 24.23 13.09 13.09 62.41 14.4 74 0 5.82-7.17 3.37-13.7-8.74-18.55z" transform="translate(-8.21 -9.45)" fill="url(#a282f91b9-5fa5-4988-8254-692ba4ee33a2)"></path><path d="M396.69 564.75c.57 4.55-1.27 9.37-2.45 10.48-3.85-43-51-86.4-90.72-95.63l-9.05 11.4c58.55 18.58 72.24 54 81.15 77.82a13.75 13.75 0 0 1-2.2 12.08c-7.64 9.09-3.63 14.31 4.5 16.24 23.5 5.59 52.53-6 57.4-22.15 4.35-14.45-14.32-17.99-38.63-10.24z" transform="translate(-8.21 -9.45)" fill="url(#b3fb91ef8-d97e-41b3-a130-697d64a0e111)"></path><path d="M490.87 431.68c0 35.54-29.82 64.35-66.61 64.35H74.83C38 496 8.21 467.22 8.21 431.68V167.49c0-35.49 29.79-64.35 66.62-64.35h349.43c36.78 0 66.61 28.81 66.61 64.35z" transform="translate(-8.21 -9.45)" fill="url(#c582a97d9-0267-4688-9a12-779fc9a927e8)"></path><path d="M435.45 399.4c0 27.38-23 49.58-51.32 49.58H114.94c-28.34 0-51.32-22.2-51.32-49.58V195.88c0-27.38 23-49.57 51.32-49.57h269.19c28.34 0 51.32 22.19 51.32 49.57z" transform="translate(-8.21 -9.45)" fill="url(#da3712d54-a231-414b-a30b-9e6d4a954c1b)"></path><path d="M435.45 401.85c0 27.38-23 49.58-51.32 49.58H114.94c-28.34 0-51.32-22.2-51.32-49.58V198.32c0-27.38 23-49.58 51.32-49.58h269.19c28.34 0 51.32 22.2 51.32 49.58z" transform="translate(-8.21 -9.45)" fill="url(#e04039f2b-db75-4208-b876-45ee965365cc)"></path><path d="M397.44 379c0 23-19.29 41.63-43.09 41.63h-226c-23.8 0-43.09-18.64-43.09-41.63V208.1c0-23 19.29-41.63 43.09-41.63h226c23.8 0 43.09 18.64 43.09 41.63z" fill="#00467b"></path><path d="M398.64 383.35c0 21.94-18.4 39.72-41.11 39.72H141.89c-22.7 0-41.11-17.78-41.11-39.72v-163c.01-21.97 18.41-39.8 41.11-39.8h215.64c22.71 0 41.11 17.78 41.11 39.71z" fill="#fff"></path><path d="M370.48 309.66A108.65 108.65 0 1 1 261.82 201a108.66 108.66 0 0 1 108.66 108.66z" transform="translate(-8.21 -9.45)" fill="url(#f793e52f1-294c-4e41-9257-c1d077972cb8)"></path><path d="M343.55 243.06a104.67 104.67 0 1 0-155 140.21c80.45-12.63 143.38-69.2 155-140.21z" transform="translate(-8.21 -9.45)" fill="url(#g37e9371e-eb2e-44cb-8d5d-51b0a3d9f187)"></path><circle cx="223.76" cy="266.02" r="39.61" fill="#f7f7f7"></circle><path d="M311.59 271.73a21.66 21.66 0 1 1-21.66-21.66 21.66 21.66 0 0 1 21.66 21.66z" fill="#f7f7f7"></path><path d="M261.35 101.45a14.36 14.36 0 0 1-1.12 20.29 14.37 14.37 0 0 1-20.29-1.12l-51.3-57.28a14.37 14.37 0 0 1 1.12-20.29 14.37 14.37 0 0 1 20.29 1.11z" transform="translate(-8.21 -9.45)" fill="url(#hfb11ed6e-e8b0-4b72-9501-5da3485d669e)"></path><path d="M270 120.87a17.71 17.71 0 0 1-25 2.32 17.71 17.71 0 0 1-2.32-24.94l68.37-82.4A17.71 17.71 0 0 1 336 13.53a17.71 17.71 0 0 1 2.32 24.94z" transform="translate(-8.21 -9.45)" fill="url(#i1c7c6dff-6dbf-4726-867a-d2052618b2d7)"></path></svg></svg><g class="font1 logoname" transform="translate(90, 9)" fill="#02dcfb"> <path transform="translate(-3.6622242647058827, 36.28125)" d="M17.84-27.89L17.84-27.89L17.84 2.16L17.84 2.16Q17.84 3.66 17.70 4.61L17.70 4.61L17.70 4.61Q17.55 5.55 17.06 6.19L17.06 6.19L17.06 6.19Q16.57 6.82 15.88 7.08L15.88 7.08L15.88 7.08Q15.19 7.34 13.88 7.31L13.88 7.31L13.88 7.31Q12.42 7.31 11.43 7.11L11.43 7.11L11.43 7.11Q10.43 6.91 9.80 6.27L9.80 6.27L9.80 6.27Q9.16 5.63 9.02 4.56L9.02 4.56L9.02 4.56Q8.88 3.49 8.88 1.92L8.88 1.92L8.88-20.27L8.88-20.27Q8.88-21.23 8.87-21.49L8.87-21.49L8.87-21.49Q8.86-21.75 8.68-21.96L8.68-21.96L8.68-21.96Q8.51-22.17 8.02-22.17L8.02-22.17L6.82-22.01L6.82-22.01Q5.77-21.98 4.85-23.20L4.85-23.20L4.85-23.20Q4.17-24.07 3.95-25.38L3.95-25.38L3.95-25.38Q3.73-26.70 3.67-28.59L3.67-28.59L3.67-28.59Q3.61-30.49 4.15-31.52L4.15-31.52L4.15-31.52Q4.50-32.18 5.18-32.73L5.18-32.73L5.18-32.73Q5.86-33.28 6.68-33.66L6.68-33.66L9.28-34.83L9.28-34.83Q10.08-35.18 11.07-35.44L11.07-35.44L11.07-35.44Q12.07-35.70 12.91-35.79L12.91-35.79L12.91-35.79Q14.06-35.88 14.85-35.64L14.85-35.64L14.85-35.64Q15.63-35.39 16.36-34.79L16.36-34.79L16.36-34.79Q17.09-34.20 17.43-33.48L17.43-33.48L17.43-33.48Q17.77-32.77 17.80-32.10L17.80-32.10L17.80-32.10Q17.84-31.43 17.84-27.89ZM16.17-20.16L16.17-20.16L16.17-20.16Q16.50-20.09 16.77-20.55L16.77-20.55L16.77-20.55Q17.04-21.02 17.02-21.67L17.02-21.67L17.02-21.67Q16.99-22.31 17.02-23.88L17.02-23.88L17.02-26.04L17.02-26.04Q17.02-30 17.02-30.14L17.02-30.14L17.02-30.14Q16.99-30.80 16.91-31.54L16.91-31.54L16.91-31.54Q16.83-32.27 16.42-33.08L16.42-33.08L16.42-33.08Q16.01-33.89 15.25-34.35L15.25-34.35L15.25-34.35Q14.48-34.80 13.41-34.83L13.41-34.83L13.41-34.83Q12.61-34.83 11.77-34.62L11.77-34.62L11.77-34.62Q10.92-34.41 9.96-34.03L9.96-34.03L9.96-34.03Q9-33.66 8.34-33.33L8.34-33.33L8.34-33.33Q7.69-33 6.80-32.51L6.80-32.51L6.80-32.51Q5.91-32.02 5.44-31.51L5.44-31.51L5.44-31.51Q4.97-31.01 4.80-30.13L4.80-30.13L4.80-30.13Q4.64-29.25 4.69-28.10L4.69-28.10L4.69-28.10Q4.69-27.23 4.78-26.77L4.78-26.77L4.95-25.66L4.95-25.66Q4.99-24.82 5.29-24.59L5.29-24.59L5.29-24.59Q5.58-24.35 5.86-24.52L5.86-24.52L5.86-24.52Q5.98-24.59 6.02-24.89L6.02-24.89L6.02-24.89Q6.07-25.20 6.19-25.76L6.19-25.76L6.38-26.86L6.38-26.86Q6.42-27.09 6.53-27.32L6.53-27.32L6.53-27.32Q6.63-27.54 6.75-27.54L6.75-27.54L6.75-27.54Q6.82-27.52 6.91-27.23L6.91-27.23L7.15-25.48L7.43-24.61L7.43-24.61Q7.64-23.79 7.79-23.47L7.79-23.47L7.79-23.47Q7.95-23.16 8.18-23.23L8.18-23.23L8.18-23.23Q8.30-23.25 8.40-23.52L8.40-23.52L8.40-23.52Q8.51-23.79 8.57-24.08L8.57-24.08L8.57-24.08Q8.63-24.38 8.77-25.08L8.77-25.08L8.98-26.18L8.98-26.18Q9.16-27.05 9.46-27.12L9.46-27.12L9.46-27.12Q9.75-27.19 9.94-27.07L9.94-27.07L9.94-27.07Q10.10-26.95 10.27-26.37L10.27-26.37L10.27-26.37Q10.43-25.78 10.70-25.15L10.70-25.15L10.70-25.15Q10.97-24.52 11.23-24.50L11.23-24.50L11.23-24.50Q11.48-24.49 11.84-25.55L11.84-25.55L11.84-25.55Q12-26.06 12.16-26.74L12.16-26.74L12.16-26.74Q12.33-27.42 12.54-27.74L12.54-27.74L12.54-27.74Q12.75-28.05 13.01-28.07L13.01-28.07L13.01-28.07Q13.27-28.08 13.59-27.68L13.59-27.68L13.59-27.68Q13.88-27.28 14.11-26.53L14.11-26.53L14.88-23.81L14.88-23.81Q15.19-22.73 15.27-22.46L15.27-22.46L15.27-22.46Q15.35-22.20 15.46-21.67L15.46-21.67L15.46-21.67Q15.56-21.14 15.76-20.66L15.76-20.66L15.76-20.66Q15.96-20.18 16.17-20.16ZM33.98-26.39L33.98-26.39L29.98-26.39L29.98-26.39Q29.02-26.39 28.30-26.96L28.30-26.96L28.30-26.96Q27.59-27.54 27.42-28.44L27.42-28.44L27.42-28.44Q27.26-29.34 27.33-30.82L27.33-30.82L27.33-30.82Q27.40-32.25 27.56-33.02L27.56-33.02L27.56-33.02Q27.73-33.80 28.24-34.46L28.24-34.46L28.24-34.46Q28.76-35.13 29.63-35.39L29.63-35.39L29.63-35.39Q30.49-35.65 32.39-35.65L32.39-35.65L39.84-35.63L39.84-35.63Q41.51-35.60 42.55-35.43L42.55-35.43L42.55-35.43Q43.59-35.25 44.34-34.56L44.34-34.56L44.34-34.56Q45.09-33.87 45.39-32.80L45.39-32.80L45.39-32.80Q45.68-31.73 45.59-30.42L45.59-30.42L45.59-30.42Q45.47-29.04 45.11-27.71L45.11-27.71L45.11-27.71Q44.74-26.39 43.91-24.07L43.91-24.07L43.91-24.07Q43.08-21.75 42.75-20.65L42.75-20.65L42.75-20.65Q42.42-19.55 41.85-16.77L41.85-16.77L41.85-16.77Q41.27-13.99 40.93-11.41L40.93-11.41L40.93-11.41Q40.59-8.84 40.50-6.54L40.50-6.54L40.50-6.54Q40.36-3.59 40.48-0.60L40.48-0.60L40.48-0.60Q40.59 2.39 40.50 3.05L40.50 3.05L40.50 3.05Q40.29 4.36 39.48 5.23L39.48 5.23L39.48 5.23Q38.67 6.09 36.05 6.07L36.05 6.07L36.05 6.07Q35.23 6.07 34.13 5.92L34.13 5.92L34.13 5.92Q33.02 5.77 32.07 4.91L32.07 4.91L32.07 4.91Q31.13 4.05 31.17-0.02L31.17-0.02L31.15-4.66L31.15-4.66Q31.17-6.49 31.52-10.25L31.52-10.25L31.52-10.25Q31.88-14.02 32.37-16.22L32.37-16.22L33.56-20.84L33.56-20.84Q34.31-23.93 34.62-24.68L34.62-24.68L34.62-24.68Q34.92-25.43 34.90-25.73L34.90-25.73L34.90-25.73Q34.85-25.97 34.65-26.18L34.65-26.18L34.65-26.18Q34.45-26.39 33.98-26.39ZM42.33-23.46L42.33-23.46L42.33-23.46Q42.52-23.44 42.83-23.86L42.83-23.86L42.83-23.86Q43.15-24.28 43.43-25.29L43.43-25.29L43.99-27.02L43.99-27.02Q44.06-27.33 44.32-28.43L44.32-28.43L44.32-28.43Q44.58-29.53 44.63-30.06L44.63-30.06L44.63-30.06Q44.67-30.59 44.63-31.45L44.63-31.45L44.63-31.45Q44.58-32.20 44.43-32.72L44.43-32.72L44.43-32.72Q44.27-33.23 43.82-33.81L43.82-33.81L43.82-33.81Q43.36-34.38 42.48-34.64L42.48-34.64L42.48-34.64Q41.60-34.90 40.41-34.95L40.41-34.95L34.55-34.95L34.55-34.95Q32.06-34.95 31.41-34.91L31.41-34.91L31.41-34.91Q30.75-34.88 30.18-34.71L30.18-34.71L30.18-34.71Q29.60-34.55 29.14-34.04L29.14-34.04L29.14-34.04Q28.69-33.54 28.48-32.91L28.48-32.91L28.48-32.91Q28.27-32.27 28.23-31.43L28.23-31.43L28.23-31.43Q28.20-30.59 28.24-29.55L28.24-29.55L28.24-29.55Q28.24-28.83 28.52-28.31L28.52-28.31L28.52-28.31Q28.80-27.80 29.11-27.89L29.11-27.89L29.11-27.89Q29.30-27.91 29.43-28.30L29.43-28.30L29.43-28.30Q29.55-28.69 29.71-29.36L29.71-29.36L29.71-29.36Q29.86-30.02 30.09-30.47L30.09-30.47L30.09-30.47Q30.33-30.91 30.59-30.91L30.59-30.91L30.59-30.91Q30.77-30.89 30.91-30.66L30.91-30.66L30.91-30.66Q31.05-30.42 31.18-29.85L31.18-29.85L31.18-29.85Q31.31-29.27 31.59-29.09L31.59-29.09L31.59-29.09Q31.88-28.90 32.13-29.02L32.13-29.02L32.13-29.02Q32.30-29.09 32.38-29.26L32.38-29.26L32.38-29.26Q32.46-29.44 32.58-29.88L32.58-29.88L32.58-29.88Q32.70-30.33 32.82-30.46L32.82-30.46L32.82-30.46Q32.95-30.59 33.12-30.59L33.12-30.59L33.12-30.59Q33.38-30.56 33.48-30.35L33.48-30.35L33.48-30.35Q33.59-30.14 33.68-29.79L33.68-29.79L33.98-28.83L33.98-28.83Q34.10-28.31 34.24-28.07L34.24-28.07L34.24-28.07Q34.38-27.82 34.62-27.89L34.62-27.89L34.62-27.89Q34.73-27.91 34.84-28.10L34.84-28.10L34.84-28.10Q34.95-28.29 35.06-28.76L35.06-28.76L35.20-29.30L35.20-29.30Q35.39-30.12 35.51-30.47L35.51-30.47L35.51-30.47Q35.63-30.82 35.88-30.83L35.88-30.83L35.88-30.83Q36.14-30.84 36.33-30.70L36.33-30.70L36.33-30.70Q36.52-30.52 36.63-29.74L36.63-29.74L37.08-27.96L37.08-27.96Q37.29-26.70 37.44-26.44L37.44-26.44L37.44-26.44Q37.59-26.18 37.80-26.05L37.80-26.05L37.80-26.05Q38.02-25.92 38.13-28.45L38.13-28.45L38.13-28.45Q38.13-28.52 38.46-30.42L38.46-30.42L38.60-31.31L38.60-31.31Q38.70-31.90 38.85-31.95L38.85-31.95L38.85-31.95Q39-31.99 39.26-31.15L39.26-31.15L39.56-28.55L39.56-28.55Q39.80-27.68 40.03-27.75L40.03-27.75L40.03-27.75Q40.15-27.77 40.36-28.29L40.36-28.29L40.83-29.79L40.83-29.79Q40.97-30.16 41.16-30.23L41.16-30.23L41.16-30.23Q41.34-30.30 41.70-29.79L41.70-29.79L41.70-29.79Q41.91-29.41 41.93-28.62L41.93-28.62L42.02-26.65L42.02-26.65Q42.02-26.04 41.95-25.43L41.95-25.43L41.95-25.43Q41.88-24.82 41.85-24.49L41.85-24.49L41.85-24.49Q41.81-24.16 41.91-23.81L41.91-23.81L41.91-23.81Q42-23.46 42.33-23.46ZM80.46 4.78L68.04-10.15L68.04-10.15Q67.15-11.70 66.50-11.77L66.50-11.77L66.50-11.77Q65.86-11.84 65.11-11.30L65.11-11.30L63.33-10.01L63.33-10.01Q61.92-8.98 61.57-8.59L61.57-8.59L61.57-8.59Q61.22-8.20 61.22-7.52L61.22-7.52L61.20 1.22L61.20 1.22Q61.17 2.41 60.91 3.34L60.91 3.34L60.91 3.34Q60.66 4.27 60.04 4.98L60.04 4.98L60.04 4.98Q59.41 5.70 58.22 5.93L58.22 5.93L58.22 5.93Q57.02 6.16 55.85 6.16L55.85 6.16L55.85 6.16Q54.40 6.19 53.25 5.94L53.25 5.94L53.25 5.94Q52.10 5.70 51.54 5.13L51.54 5.13L51.54 5.13Q50.98 4.57 50.67 3.67L50.67 3.67L50.67 3.67Q50.37 2.77 50.37-0.16L50.37-0.16L50.41-29.93L50.41-29.93Q50.41-31.45 50.65-32.80L50.65-32.80L50.65-32.80Q50.88-34.15 51.66-34.92L51.66-34.92L51.66-34.92Q52.43-35.70 53.47-35.99L53.47-35.99L53.47-35.99Q54.52-36.28 55.97-36.28L55.97-36.28L55.97-36.28Q57.54-36.26 58.73-35.91L58.73-35.91L58.73-35.91Q59.93-35.55 60.59-34.77L60.59-34.77L60.59-34.77Q61.24-33.98 61.31-32.11L61.31-32.11L61.27-29.41L61.34-24.26L61.34-22.20L61.34-22.20Q61.48-21.59 61.68-21.54L61.68-21.54L61.68-21.54Q61.88-21.49 62.60-22.03L62.60-22.03L77.16-32.88L77.16-32.88Q78.54-33.91 79.63-34.69L79.63-34.69L79.63-34.69Q80.72-35.46 81.30-35.71L81.30-35.71L81.30-35.71Q81.89-35.95 82.48-36.02L82.48-36.02L82.48-36.02Q83.58-36.14 84.56-35.71L84.56-35.71L84.56-35.71Q85.55-35.27 86.51-34.17L86.51-34.17L86.51-34.17Q87.47-33.07 87.95-32.09L87.95-32.09L87.95-32.09Q88.43-31.10 88.48-30.26L88.48-30.26L88.48-30.26Q88.52-29.41 88.02-28.56L88.02-28.56L88.02-28.56Q87.52-27.70 86.20-26.74L86.20-26.74L76.36-19.55L76.36-19.55Q75.30-18.77 75.21-18.27L75.21-18.27L75.21-18.27Q75.12-17.77 76.17-16.57L76.17-16.57L86.25-4.83L88.69-2.02L88.69-2.02Q89.39-1.13 89.64-0.45L89.64-0.45L89.64-0.45Q89.88 0.23 89.81 1.08L89.81 1.08L89.81 1.08Q89.74 1.69 89.25 2.95L89.25 2.95L89.25 2.95Q88.76 4.22 86.75 5.36L86.75 5.36L86.75 5.36Q84.75 6.49 83.24 6.42L83.24 6.42L83.24 6.42Q81.73 6.35 80.46 4.78L80.46 4.78ZM51.45-30.82L51.45-30.82L51.45-28.97L51.45-28.97Q51.26-27.33 51.43-26.78L51.43-26.78L51.43-26.78Q51.61-26.23 51.76-26.21L51.76-26.21L51.76-26.21Q51.91-26.20 52.15-26.79L52.15-26.79L52.15-26.79Q52.29-27.14 52.41-27.56L52.41-27.56L52.64-28.43L52.64-28.43Q52.76-28.88 52.88-28.90L52.88-28.90L52.88-28.90Q52.95-28.90 53.25-28.37L53.25-28.37L53.25-28.37Q53.55-27.84 53.74-27.88L53.74-27.88L53.74-27.88Q53.93-27.91 54.05-28.82L54.05-28.82L54.05-28.82Q54.16-29.72 54.38-29.72L54.38-29.72L54.38-29.72Q54.56-29.70 54.82-29.33L54.82-29.33L54.82-29.33Q55.08-28.97 55.24-27.69L55.24-27.69L55.24-27.69Q55.41-26.41 55.51-25.80L55.51-25.80L55.51-25.80Q55.62-25.20 55.83-24.53L55.83-24.53L55.83-24.53Q56.04-23.86 56.24-23.85L56.24-23.85L56.24-23.85Q56.44-23.84 56.72-24.91L56.72-24.91L57.14-26.55L57.14-26.55Q57.35-27.42 57.64-28.16L57.64-28.16L57.64-28.16Q57.94-28.90 58.34-28.83L58.34-28.83L58.34-28.83Q58.57-28.76 58.80-28.36L58.80-28.36L59.20-27.09L59.20-27.09Q59.63-26.25 59.91-26.36L59.91-26.36L59.91-26.36Q60.19-26.46 60.28-27.06L60.28-27.06L60.28-27.06Q60.38-27.66 60.38-28.52L60.38-28.52L60.38-31.22L60.38-31.22Q60.33-32.53 59.98-33.38L59.98-33.38L59.98-33.38Q59.63-34.22 58.95-34.59L58.95-34.59L58.95-34.59Q58.27-34.97 56.93-35.10L56.93-35.10L56.93-35.10Q55.59-35.23 54.68-35.09L54.68-35.09L54.68-35.09Q52.99-34.80 52.43-34.07L52.43-34.07L52.43-34.07Q51.87-33.33 51.66-32.54L51.66-32.54L51.66-32.54Q51.45-31.76 51.45-30.82ZM69.96-26.30L63.16-21.16L63.16-21.16Q62.02-20.37 61.77-19.88L61.77-19.88L61.77-19.88Q61.52-19.38 61.50-19.00L61.50-19.00L61.50-19.00Q61.48-18.61 61.57-17.51L61.57-17.51L61.57-17.51Q61.62-16.66 61.83-15.97L61.83-15.97L61.83-15.97Q62.04-15.28 62.44-15.30L62.44-15.30L62.44-15.30Q62.65-15.30 63.16-16.17L63.16-16.17L63.80-17.20L63.80-17.20Q64.15-17.86 64.31-18.07L64.31-18.07L64.31-18.07Q64.48-18.28 64.65-18.29L64.65-18.29L64.65-18.29Q64.83-18.30 65.06-18L65.06-18L65.06-18Q65.25-17.70 65.38-17.07L65.38-17.07L65.38-17.07Q65.51-16.45 65.71-16.11L65.71-16.11L65.71-16.11Q65.91-15.77 66.25-15.67L66.25-15.67L66.25-15.67Q66.59-15.56 67.13-16.90L67.13-16.90L67.13-16.90Q67.38-17.60 67.62-18.60L67.62-18.60L67.62-18.60Q67.85-19.59 68.04-20.37L68.04-20.37L68.04-20.37Q68.23-21.14 68.47-21.21L68.47-21.21L68.47-21.21Q68.72-21.28 68.93-21.16L68.93-21.16L68.93-21.16Q69-21.09 69.14-20.93L69.14-20.93L69.14-20.93Q69.28-20.77 69.69-20.39L69.69-20.39L69.69-20.39Q70.10-20.02 70.36-20.04L70.36-20.04L70.36-20.04Q70.66-20.06 71.04-21.02L71.04-21.02L71.04-21.02Q71.41-21.98 71.46-22.11L71.46-22.11L71.46-22.11Q71.51-22.24 71.84-23.39L71.84-23.39L71.84-23.39Q72.16-24.54 72.49-24.56L72.49-24.56L72.49-24.56Q72.63-24.56 73.22-24.02L73.22-24.02L73.22-24.02Q73.80-23.48 74.09-23.60L74.09-23.60L74.09-23.60Q74.25-23.65 74.53-24.61L74.53-24.61L75.12-26.30L75.12-26.30Q75.35-27.33 75.60-27.46L75.60-27.46L75.60-27.46Q75.84-27.59 76.18-27.54L76.18-27.54L76.18-27.54Q76.52-27.49 77.24-26.17L77.24-26.17L77.24-26.17Q77.95-24.84 78.35-25.10L78.35-25.10L78.35-25.10Q78.54-25.22 78.67-25.66L78.67-25.66L78.67-25.66Q78.80-26.11 79.03-27.21L79.03-27.21L79.03-27.21Q79.27-28.31 79.56-29.44L79.56-29.44L79.56-29.44Q79.85-30.56 80.16-30.56L80.16-30.56L80.16-30.56Q80.32-30.54 80.55-30.33L80.55-30.33L81.12-29.06L81.12-29.06Q81.45-28.34 81.82-28.36L81.82-28.36L81.82-28.36Q82.15-28.36 82.31-28.72L82.31-28.72L82.31-28.72Q82.48-29.09 82.75-30.08L82.75-30.08L82.75-30.08Q83.02-31.08 83.33-31.10L83.33-31.10L83.33-31.10Q83.65-31.13 83.98-30.89L83.98-30.89L83.98-30.89Q84.19-30.70 84.66-29.94L84.66-29.94L84.66-29.94Q85.13-29.18 85.45-29.21L85.45-29.21L85.45-29.21Q85.78-29.25 86.10-30.07L86.10-30.07L86.10-30.07Q86.41-30.89 86.41-31.69L86.41-31.69L86.41-31.69Q86.39-32.37 86.19-32.81L86.19-32.81L86.19-32.81Q85.99-33.26 85.43-33.86L85.43-33.86L85.43-33.86Q84.87-34.45 84.20-34.77L84.20-34.77L84.20-34.77Q83.53-35.09 82.76-35.02L82.76-35.02L82.76-35.02Q81.94-34.92 80.98-34.32L80.98-34.32L80.98-34.32Q80.02-33.73 77.32-31.82L77.32-31.82L77.32-31.82Q74.63-29.91 72.68-28.41L72.68-28.41L69.96-26.30ZM100.34-3.49L101.86-6.96L103.24-10.17L103.24-10.17Q103.59-11.02 103.54-11.51L103.54-11.51L103.54-11.51Q103.48-12 102.77-12.16L102.77-12.16L101.06-12.14L100.62-12.19L99.33-12.14L99.33-12.14Q98.23-12.09 97.30-12.49L97.30-12.49L97.30-12.49Q96.38-12.89 95.65-13.79L95.65-13.79L95.65-13.79Q94.92-14.70 94.91-16.77L94.91-16.77L94.91-16.77Q94.90-18.84 94.99-19.48L94.99-19.48L94.99-19.48Q95.34-21.63 96.57-22.23L96.57-22.23L96.57-22.23Q97.80-22.83 100.78-22.83L100.78-22.83L117.33-22.83L131.06-22.62L134.65-22.57L134.65-22.57Q136.17-22.34 136.88-21.61L136.88-21.61L136.88-21.61Q137.58-20.88 137.84-19.62L137.84-19.62L137.84-19.62Q138.09-18.35 138.11-16.38L138.11-16.38L138.11-16.38Q138.12-14.41 136.85-13.22L136.85-13.22L136.85-13.22Q135.77-12.21 133.90-12.19L133.90-12.19L131.46-12.19L131.46-12.19Q130.97-12.07 130.88-12.09L130.88-12.09L130.88-12.09Q130.50-12.09 129.59-12.69L129.59-12.69L129.59-12.69Q128.67-13.29 128.04-13.61L128.04-13.61L128.04-13.61Q127.41-13.92 125.96-13.91L125.96-13.91L125.96-13.91Q124.52-13.90 123.40-13.45L123.40-13.45L120.28-12.21L119.93-12.14L116.95-12.14L116.95-12.14Q115.57-12.14 115.16-11.79L115.16-11.79L115.16-11.79Q114.75-11.44 114.29-10.48L114.29-10.48L114.29-10.48Q113.84-9.52 113.04-7.55L113.04-7.55L111.52-3.84L111.52-3.84Q111.23-3.16 111.62-2.78L111.62-2.78L111.62-2.78Q112.01-2.39 114.82-2.39L114.82-2.39L119.20-2.37L119.20-2.37Q121.03-2.34 121.22-2.64L121.22-2.64L121.22-2.64Q121.41-2.93 121.41-3.28L121.41-3.28L121.41-3.28Q121.38-3.52 121.10-4.14L121.10-4.14L121.10-4.14Q120.82-4.76 120.56-5.78L120.56-5.78L120.56-5.78Q120.30-6.80 120.25-7.75L120.25-7.75L120.25-7.75Q120.19-8.70 121.57-10.17L121.57-10.17L121.57-10.17Q122.58-11.25 123.80-11.65L123.80-11.65L123.80-11.65Q125.02-12.05 125.77-12.02L125.77-12.02L125.77-12.02Q127.17-11.95 128.18-11.11L128.18-11.11L128.18-11.11Q129.19-10.27 130.45-8.04L130.45-8.04L132.54-4.34L134.13-1.29L134.13-1.29Q135 0.40 134.99 2.37L134.99 2.37L134.99 2.37Q134.98 4.34 133.90 5.41L133.90 5.41L133.90 5.41Q132.82 6.49 131.79 6.81L131.79 6.81L131.79 6.81Q130.76 7.13 127.27 7.10L127.27 7.10L105.49 7.05L105.49 7.05Q103.13 7.05 101.84 6.86L101.84 6.86L101.84 6.86Q100.55 6.66 99.49 5.58L99.49 5.58L99.49 5.58Q98.44 4.50 98.43 2.93L98.43 2.93L98.43 2.93Q98.41 1.36 98.77 0.33L98.77 0.33L98.77 0.33Q99.12-0.70 100.34-3.49L100.34-3.49ZM126.96-24.80L110.23-24.80L102.66-24.89L102.66-24.89Q100.95-24.89 100.24-25.69L100.24-25.69L100.24-25.69Q99.54-26.48 99.19-27.96L99.19-27.96L99.19-27.96Q98.84-29.44 98.82-31.38L98.82-31.38L98.82-31.38Q98.81-33.33 100.17-34.62L100.17-34.62L100.17-34.62Q100.92-35.32 101.85-35.53L101.85-35.53L101.85-35.53Q102.77-35.74 104.46-35.74L104.46-35.74L129.94-35.53L129.94-35.53Q134.11-35.48 133.90-29.98L133.90-29.98L133.90-29.98Q133.76-26.88 132.87-26.06L132.87-26.06L132.87-26.06Q131.98-25.24 131.41-25.02L131.41-25.02L131.41-25.02Q130.85-24.80 126.96-24.80L126.96-24.80ZM100.01-30.33L100.01-30.33L100.01-30.33Q99.91-28.03 100.31-28.14L100.31-28.14L100.31-28.14Q100.71-28.24 101.18-29.16L101.18-29.16L101.77-30.68L101.77-30.68Q102.28-31.64 102.80-31.52L102.80-31.52L102.80-31.52Q103.08-31.43 103.25-31.07L103.25-31.07L103.25-31.07Q103.43-30.70 103.79-29.54L103.79-29.54L103.79-29.54Q104.16-28.38 104.45-28.35L104.45-28.35L104.45-28.35Q104.74-28.31 105.38-29.44L105.38-29.44L106.36-31.20L106.36-31.20Q106.97-32.34 107.65-32.27L107.65-32.27L107.65-32.27Q108.16-32.20 108.75-30.59L108.75-30.59L108.75-30.59Q109.34-28.97 109.75-28.17L109.75-28.17L109.75-28.17Q110.16-27.38 110.74-27.47L110.74-27.47L110.74-27.47Q111.07-27.49 111.80-28.97L111.80-28.97L112.55-30.33L112.55-30.33Q113.09-31.34 113.51-31.43L113.51-31.43L113.51-31.43Q113.93-31.52 114.66-30.75L114.66-30.75L114.66-30.75Q114.80-30.59 115.58-28.85L115.58-28.85L115.58-28.85Q116.37-27.12 116.85-27.08L116.85-27.08L116.85-27.08Q117.33-27.05 118.17-29.02L118.17-29.02L118.17-29.02Q118.55-29.91 119.17-30.89L119.17-30.89L119.17-30.89Q119.79-31.88 120.33-31.83L120.33-31.83L120.33-31.83Q120.75-31.76 121.11-31.22L121.11-31.22L121.11-31.22Q121.48-30.68 121.96-29.61L121.96-29.61L121.96-29.61Q122.44-28.55 122.81-28.57L122.81-28.57L122.81-28.57Q123.19-28.57 123.59-29.37L123.59-29.37L124.15-30.61L124.15-30.61Q124.59-31.15 125.02-31.08L125.02-31.08L125.02-31.08Q125.34-31.01 125.65-30.35L125.65-30.35L126.12-28.97L126.12-28.97Q126.80-27.21 127.38-27.54L127.38-27.54L127.38-27.54Q127.83-27.77 128.20-29.25L128.20-29.25L128.20-29.25Q128.58-30.73 128.74-31.51L128.74-31.51L128.74-31.51Q128.91-32.30 129.18-32.40L129.18-32.40L129.18-32.40Q129.45-32.51 130.05-31.66L130.05-31.66L130.05-31.66Q130.34-31.22 130.59-30.43L130.59-30.43L130.59-30.43Q130.85-29.65 131.26-28.89L131.26-28.89L131.26-28.89Q131.67-28.13 132.09-28.31L132.09-28.31L132.09-28.31Q132.30-28.41 132.48-29.13L132.48-29.13L132.48-29.13Q132.66-29.86 132.70-31.17L132.70-31.17L132.70-31.17Q132.75-32.48 132.45-33.14L132.45-33.14L132.45-33.14Q132.14-33.73 131.52-34.13L131.52-34.13L131.52-34.13Q130.90-34.52 130.05-34.58L130.05-34.58L130.05-34.58Q129.21-34.64 126.84-34.64L126.84-34.64L103.80-34.62L103.80-34.62Q101.55-34.59 100.95-34.15L100.95-34.15L100.95-34.15Q100.34-33.70 100.20-33.04L100.20-33.04L100.20-33.04Q100.05-32.37 100.04-31.77L100.04-31.77L100.04-31.77Q100.03-31.17 100.01-30.33Z"></path></g><g class="font1 slogan" transform="translate(90, 58)" fill="#02dcfb"> <path transform="translate(-0.625, 16.5625)" d="M9.14 1.33L5.94 1.33L5.94-11.02L5.94-11.02Q4.06-9.45 0.63-8.75L0.63-8.75L0.63-10.55L0.63-10.55Q4.53-12.34 5.94-15.55L5.94-15.55L9.14-15.55L9.14 1.33ZM20.55-13.20L20.55-13.20L11.72-13.20L11.72-15.31L23.83-15.31L23.83-13.20L23.83-13.20Q18.36-5.78 17.73 1.25L17.73 1.25L14.53 1.25L14.53 1.25Q15.16-5.78 20.55-13.20ZM29.06 1.25L25.86 1.25L25.86-16.56L29.06-16.56L29.06-5.70L34.14-10.70L38.28-10.70L33.28-6.02L38.59 1.25L34.84 1.25L31.17-3.91L29.06-1.95L29.06 1.25ZM39.45 5.70L39.45 5.70L39.45 3.91L39.45 3.91Q40.23 4.38 41.17 4.30L41.17 4.30L41.17 4.30Q42.66 4.30 43.36 2.50L43.36 2.50L44.06 1.02L38.98-10.63L42.50-10.63L45.63-2.27L48.44-10.63L51.88-10.63L46.88 1.80L46.88 1.80Q45.08 6.72 41.88 6.41L41.88 6.41L41.88 6.41Q40.47 6.41 39.45 5.70ZM53.13-3.13L53.13-3.13L53.13-10.63L56.33-10.63L56.33-3.36L56.33-3.36Q56.25-0.31 59.14-0.39L59.14-0.39L61.48-0.39L61.48-10.63L64.69-10.63L64.69 1.56L58.05 1.56L58.05 1.56Q52.97 1.72 53.13-3.13ZM70.63 1.33L67.42 1.33L67.42-10.86L73.91-10.86L73.91-10.86Q79.06-10.94 78.98-6.17L78.98-6.17L78.98 1.33L75.78 1.33L75.78-6.09L75.78-6.09Q75.78-8.83 73.05-8.83L73.05-8.83L70.63-8.83L70.63 1.33ZM84.38 1.17L81.02 1.17L81.02-2.03L84.38-2.03L84.38 1.17ZM98.75-6.72L98.75-6.72L95.55-6.72L95.55-6.72Q94.84-8.83 92.58-8.83L92.58-8.83L92.58-8.83Q89.53-8.67 89.45-4.53L89.45-4.53L89.45-4.53Q89.53-0.31 93.59-0.23L93.59-0.23L93.59-0.23Q96.02-0.23 98.75-3.05L98.75-3.05L98.75-0.63L98.75-0.63Q96.64 1.72 92.73 1.72L92.73 1.72L92.73 1.72Q86.48 1.41 86.17-4.53L86.17-4.53L86.17-4.53Q86.25-10.70 92.58-10.94L92.58-10.94L92.58-10.94Q97.50-10.86 98.75-6.72ZM107.03-0.31L107.03-0.31L107.03-0.31Q110.16-0.31 110.16-4.53L110.16-4.53L110.16-4.53Q110.08-8.75 107.03-8.83L107.03-8.83L107.03-8.83Q104.06-8.75 103.98-4.53L103.98-4.53L103.98-4.53Q104.06-0.47 107.03-0.31ZM107.03 1.64L107.03 1.64L107.03 1.64Q101.02 1.33 100.70-4.53L100.70-4.53L100.70-4.53Q100.94-10.70 107.11-10.94L107.11-10.94L107.11-10.94Q113.20-10.70 113.44-4.61L113.44-4.61L113.44-4.61Q113.28 1.41 107.03 1.64ZM119.06 1.33L115.86 1.33L115.86-10.86L129.92-10.86L129.92-10.86Q134.77-10.94 134.69-6.72L134.69-6.72L134.69 1.33L131.48 1.33L131.48-6.41L131.48-6.41Q131.48-8.83 128.91-8.83L128.91-8.83L126.88-8.83L126.88 1.33L123.67 1.33L123.67-6.56L123.67-6.56Q123.67-8.83 121.33-8.83L121.33-8.83L119.06-8.83L119.06 1.33Z"></path></g></svg>